{
  "accessors": [
    {
      "bufferView": 2,
      "componentType": 5126,
      "count": 1658,
      "max": [
        2.397667169570923,
        8.582149505615234,
        1.5026447772979736
      ],
      "min": [
        -2.503965139389038,
        5.449583053588867,
        -1.568814992904663
      ],
      "type": "VEC3"
    },
    {
      "bufferView": 2,
      "byteOffset": 19896,
      "componentType": 5126,
      "count": 1658,
      "type": "VEC3"
    },
    {
      "bufferView": 3,
      "componentType": 5126,
      "count": 1658,
      "type": "VEC4"
    },
    {
      "bufferView": 1,
      "componentType": 5126,
      "count": 1658,
      "type": "VEC2"
    },
    {
      "bufferView": 0,
      "componentType": 5125,
      "count": 8232,
      "type": "SCALAR"
    },
    {
      "bufferView": 2,
      "byteOffset": 39792,
      "componentType": 5126,
      "count": 574,
      "max": [
        0.9245616793632507,
        8.673479080200195,
        0.9977926015853882
      ],
      "min": [
        -0.9733530282974243,
        -9.776651859283447e-05,
        -0.9977927207946777
      ],
      "type": "VEC3"
    },
    {
      "bufferView": 2,
      "byteOffset": 46680,
      "componentType": 5126,
      "count": 574,
      "type": "VEC3"
    },
    {
      "bufferView": 3,
      "byteOffset": 26528,
      "componentType": 5126,
      "count": 574,
      "type": "VEC4"
    },
    {
      "bufferView": 1,
      "byteOffset": 13264,
      "componentType": 5126,
      "count": 574,
      "type": "VEC2"
    },
    {
      "bufferView": 0,
      "byteOffset": 32928,
      "componentType": 5125,
      "count": 2952,
      "type": "SCALAR"
    },
    {
      "bufferView": 2,
      "byteOffset": 53568,
      "componentType": 5126,
      "count": 22,
      "max": [
        0.36980512738227844,
        1.9672067165374756,
        0.3378969132900238
      ],
      "min": [
        -0.3573218882083893,
        -2.5444488525390625,
        -0.3378969430923462
      ],
      "type": "VEC3"
    },
    {
      "bufferView": 2,
      "byteOffset": 53832,
      "componentType": 5126,
      "count": 22,
      "type": "VEC3"
    },
    {
      "bufferView": 3,
      "byteOffset": 35712,
      "componentType": 5126,
      "count": 22,
      "type": "VEC4"
    },
    {
      "bufferView": 1,
      "byteOffset": 17856,
      "componentType": 5126,
      "count": 22,
      "type": "VEC2"
    },
    {
      "bufferView": 0,
      "byteOffset": 44736,
      "componentType": 5125,
      "count": 60,
      "type": "SCALAR"
    },
    {
      "bufferView": 2,
      "byteOffset": 54096,
      "componentType": 5126,
      "count": 440,
      "max": [
        0.3713364005088806,
        5.005163192749023,
        0.3714340925216675
      ],
      "min": [
        -0.3539850115776062,
        0.8439469337463379,
        -0.3714344799518585
      ],
      "type": "VEC3"
    },
    {
      "bufferView": 2,
      "byteOffset": 59376,
      "componentType": 5126,
      "count": 440,
      "type": "VEC3"
    },
    {
      "bufferView": 3,
      "byteOffset": 36064,
      "componentType": 5126,
      "count": 440,
      "type": "VEC4"
    },
    {
      "bufferView": 1,
      "byteOffset": 18032,
      "componentType": 5126,
      "count": 440,
      "type": "VEC2"
    },
    {
      "bufferView": 0,
      "byteOffset": 44976,
      "componentType": 5125,
      "count": 1800,
      "type": "SCALAR"
    }
  ],
  "asset": {
    "generator": "fab-model-conversion",
    "version": "2.0"
  },
  "bufferViews": [
    {
      "buffer": 0,
      "byteLength": 52176,
      "target": 34963
    },
    {
      "buffer": 0,
      "byteLength": 21552,
      "byteOffset": 52176,
      "byteStride": 8,
      "target": 34962
    },
    {
      "buffer": 0,
      "byteLength": 64656,
      "byteOffset": 73728,
      "byteStride": 12,
      "target": 34962
    },
    {
      "buffer": 0,
      "byteLength": 43104,
      "byteOffset": 138384,
      "byteStride": 16,
      "target": 34962
    }
  ],
  "buffers": [
    {
      "byteLength": 181488,
      "uri": "scene.bin"
    }
  ],
  "extensionsUsed": [
    "KHR_materials_specular"
  ],
  "images": [
    {
      "uri": "textures/Metal_1_baseColor.png"
    },
    {
      "uri": "textures/Metal_1_normal.png"
    },
    {
      "uri": "textures/Metal_2_baseColor.png"
    },
    {
      "uri": "textures/Metal_2_normal.png"
    },
    {
      "uri": "textures/Leather_baseColor.png"
    },
    {
      "uri": "textures/Leather_normal.png"
    },
    {
      "uri": "textures/Bronze_grooves_baseColor.png"
    },
    {
      "uri": "textures/Bronze_grooves_metallicRoughness.png"
    },
    {
      "uri": "textures/Bronze_grooves_normal.png"
    }
  ],
  "materials": [
    {
      "doubleSided": true,
      "name": "Metal_1",
      "normalTexture": {
        "index": 1
      },
      "pbrMetallicRoughness": {
        "baseColorTexture": {
          "index": 0
        },
        "metallicFactor": 0.0,
        "roughnessFactor": 0.6
      }
    },
    {
      "doubleSided": true,
      "name": "Metal_2",
      "normalTexture": {
        "index": 3
      },
      "pbrMetallicRoughness": {
        "baseColorTexture": {
          "index": 2
        },
        "metallicFactor": 0.0,
        "roughnessFactor": 0.6
      }
    },
    {
      "doubleSided": true,
      "name": "Leather",
      "normalTexture": {
        "index": 5
      },
      "pbrMetallicRoughness": {
        "baseColorTexture": {
          "index": 4
        },
        "metallicFactor": 0.0,
        "roughnessFactor": 0.6
      }
    },
    {
      "doubleSided": true,
      "extensions": {
        "KHR_materials_specular": {
          "specularColorFactor": [
            1.0,
            1.0,
            1.0
          ],
          "specularFactor": 1.0
        }
      },
      "name": "Bronze_grooves",
      "normalTexture": {
        "index": 8
      },
      "pbrMetallicRoughness": {
        "baseColorTexture": {
          "index": 6
        },
        "metallicFactor": 0.0,
        "metallicRoughnessTexture": {
          "index": 7
        }
      }
    }
  ],
  "meshes": [
    {
      "name": "head_Metal_1_0",
      "primitives": [
        {
          "attributes": {
            "NORMAL": 1,
            "POSITION": 0,
            "TANGENT": 2,
            "TEXCOORD_0": 3
          },
          "indices": 4,
          "material": 0,
          "mode": 4
        }
      ]
    },
    {
      "name": "metal_Metal_2_0",
      "primitives": [
        {
          "attributes": {
            "NORMAL": 6,
            "POSITION": 5,
            "TANGENT": 7,
            "TEXCOORD_0": 8
          },
          "indices": 9,
          "material": 1,
          "mode": 4
        }
      ]
    },
    {
      "name": "handle_Leather_0",
      "primitives": [
        {
          "attributes": {
            "NORMAL": 11,
            "POSITION": 10,
            "TANGENT": 12,
            "TEXCOORD_0": 13
          },
          "indices": 14,
          "material": 2,
          "mode": 4
        }
      ]
    },
    {
      "name": "grooves_Bronze_grooves_0",
      "primitives": [
        {
          "attributes": {
            "NORMAL": 16,
            "POSITION": 15,
            "TANGENT": 17,
            "TEXCOORD_0": 18
          },
          "indices": 19,
          "material": 3,
          "mode": 4
        }
      ]
    }
  ],
  "nodes": [
    {
      "children": [
        1
      ],
      "matrix": [
        1.0,
        0.0,
        0.0,
        0.0,
        0.0,
        2.220446049250313e-16,
        -1.0,
        0.0,
        0.0,
        1.0,
        2.220446049250313e-16,
        0.0,
        0.0,
        0.0,
        0.0,
        1.0
      ],
      "name": "Sketchfab_model"
    },
    {
      "children": [
        2
      ],
      "matrix": [
        0.009999999776482582,
        0.0,
        0.0,
        0.0,
        0.0,
        0.0,
        0.009999999776482582,
        0.0,
        0.0,
        -0.009999999776482582,
        0.0,
        0.0,
        0.0,
        0.0,
        0.0,
        1.0
      ],
      "name": "006344f2690b436cbe749ed94edfdc4e.fbx"
    },
    {
      "children": [
        3,
        5,
        7,
        9
      ],
      "name": "RootNode"
    },
    {
      "children": [
        4
      ],
      "name": "head"
    },
    {
      "mesh": 0,
      "name": "head_Metal_1_0"
    },
    {
      "children": [
        6
      ],
      "name": "metal"
    },
    {
      "mesh": 1,
      "name": "metal_Metal_2_0"
    },
    {
      "children": [
        8
      ],
      "matrix": [
        1.0,
        0.0,
        0.0,
        0.0,
        0.0,
        1.0,
        0.0,
        0.0,
        0.0,
        0.0,
        1.0,
        0.0,
        0.006341074593365192,
        3.2302653789520264,
        0.0,
        1.0
      ],
      "name": "handle"
    },
    {
      "mesh": 2,
      "name": "handle_Leather_0"
    },
    {
      "children": [
        10
      ],
      "name": "grooves"
    },
    {
      "mesh": 3,
      "name": "grooves_Bronze_grooves_0"
    }
  ],
  "samplers": [
    {
      "magFilter": 9729,
      "minFilter": 9987,
      "wrapS": 10497,
      "wrapT": 10497
    }
  ],
  "scene": 0,
  "scenes": [
    {
      "name": "Sketchfab_Scene",
      "nodes": [
        0
      ]
    }
  ],
  "textures": [
    {
      "sampler": 0,
      "source": 0
    },
    {
      "sampler": 0,
      "source": 1
    },
    {
      "sampler": 0,
      "source": 2
    },
    {
      "sampler": 0,
      "source": 3
    },
    {
      "sampler": 0,
      "source": 4
    },
    {
      "sampler": 0,
      "source": 5
    },
    {
      "sampler": 0,
      "source": 6
    },
    {
      "sampler": 0,
      "source": 7
    },
    {
      "sampler": 0,
      "source": 8
    }
  ]
}
