{"images":[{"uri":"_CG素材3D模型002.png","name":"_CG素材3D模型002.png"},{"uri":"_CG素材3D模型001.png","name":"_CG素材3D模型001.png"}],"accessors":[{"componentType":5126,"bufferView":0,"count":1,"type":"SCALAR","byteOffset":0},{"componentType":5123,"bufferView":1,"count":93528,"type":"SCALAR","byteOffset":0},{"componentType":5123,"bufferView":1,"count":8640,"type":"SCALAR","byteOffset":187056},{"componentType":5123,"bufferView":1,"count":7560,"type":"SCALAR","byteOffset":204336},{"componentType":5126,"max":[0.011559488251805305,0.03345005586743355,0.038993384689092636],"bufferView":2,"count":16802,"type":"VEC3","min":[-0.011604523286223412,-0.0058828555047512054,0.00012308204895816743],"byteOffset":0},{"componentType":5126,"bufferView":2,"count":16802,"type":"VEC3","byteOffset":12},{"componentType":5126,"bufferView":2,"count":16802,"type":"VEC2","byteOffset":24},{"componentType":5126,"max":[-0.017374420538544655,0.0009885794715955853,0.05699401721358299],"bufferView":3,"count":1516,"type":"VEC3","min":[-0.019400810822844505,-0.001206377288326621,0.00014407832350116223],"byteOffset":0},{"componentType":5126,"bufferView":3,"count":1516,"type":"VEC3","byteOffset":12},{"componentType":5126,"bufferView":3,"count":1516,"type":"VEC2","byteOffset":24},{"componentType":5126,"max":[0.012133046984672546,0.02042705938220024,0.04667328670620918],"bufferView":4,"count":7560,"type":"VEC3","min":[-0.012176531367003918,-0.005096458829939365,0.012460045516490936],"byteOffset":0},{"componentType":5126,"bufferView":4,"count":7560,"type":"VEC3","byteOffset":12},{"componentType":5126,"bufferView":4,"count":7560,"type":"VEC2","byteOffset":24}],"textures":[{"source":0,"sampler":0},{"source":1,"sampler":0}],"buffers":[{"byteLength":1047556,"uri":"buffer.bin"}],"bufferViews":[{"byteLength":4,"byteOffset":0,"buffer":0},{"byteLength":219456,"target":34963,"byteOffset":4,"buffer":0},{"byteLength":537664,"byteStride":32,"target":34962,"byteOffset":219460,"buffer":0},{"byteLength":48512,"byteStride":32,"target":34962,"byteOffset":757124,"buffer":0},{"byteLength":241920,"byteStride":32,"target":34962,"byteOffset":805636,"buffer":0}],"samplers":[{"magFilter":9729,"minFilter":9987}],"scene":0,"nodes":[{"children":[1,6],"name":"RootNode"},{"rotation":[-0.5,0.5,0.5,0.5],"scale":[3.53953123092651,3.53953123092651,3.53953123092651],"children":[2,3,4],"name":" CG素材3D模型001","translation":[8.91386795043945,-0.925497353076935,-1.49249672889709]},{"rotation":[-0.0000000000000000000000000000000096385673159551,0.0000000000000000000000000000000158759475222975,-0.707106828689575,0.707106709480286],"scale":[16.3968105316162,16.3968105316162,16.3968105316162],"name":" CG素材3D模型002","translation":[-0.0787890627980232,0.108073726296425,-0.373625189065933],"mesh":0},{"rotation":[-0.0000000000000000000000000000000096385673159551,0.0000000000000000000000000000000158759475222975,-0.707106828689575,0.707106709480286],"scale":[16.3968105316162,16.3968105316162,16.3968105316162],"name":" CG素材3D模型003","translation":[-0.0787890627980232,0.108073726296425,-0.373625189065933],"mesh":2},{"rotation":[0.115075141191483,-0.364971578121185,0.277815997600555,0.881119608879089],"children":[5],"name":" CG素材3D模型004","translation":[-0.179768055677414,-0.0977902188897133,-0.0397826954722404]},{"rotation":[0.0000000295699074115419,-0.0000000115569678271754,-0.707106828689575,0.70710676908493],"scale":[16.3968105316162,16.3968105316162,16.3968105316162],"name":" CG素材3D模型005","translation":[0.00178474420681596,-0.301497936248779,-0.468441069126129],"mesh":1},{"scale":[9.20368385314941,9.20368385314941,9.20368385314941],"name":"VRayLight001","translation":[8.42820072174072,0.274343550205231,17.6902332305908]},{"children":[0],"name":"Pivot","translation":[-8.88879317252962,2.240812062734756,1.525522035725918]}],"materials":[{"pbrMetallicRoughness":{"roughnessFactor":0.70710676908493,"baseColorFactor":[1,1,1,1],"baseColorTexture":{"index":0},"metallicFactor":0.400000005960464},"extensions":{"KHR_materials_specular":{"specularFactor":0.3}},"name":" CG素材3D模型001"},{"pbrMetallicRoughness":{"roughnessFactor":0.70710676908493,"baseColorFactor":[1,1,1,1],"baseColorTexture":{"index":1},"metallicFactor":0.400000005960464},"extensions":{"KHR_materials_specular":{"specularFactor":0.3}},"name":" CG素材3D模型002"}],"animations":[{"samplers":[],"channels":[],"name":"Take 001"}],"scenes":[{"nodes":[7],"name":"Root Scene"}],"asset":{"generator":"CG美术之家","source":"https://www.cgmszj.com/model/107151.html","version":"2.0"},"meshes":[{"primitives":[{"mode":4,"indices":1,"material":0,"attributes":{"POSITION":4,"TEXCOORD_0":6,"NORMAL":5}}],"name":" CG素材3D模型002"},{"primitives":[{"mode":4,"indices":2,"material":0,"attributes":{"POSITION":7,"TEXCOORD_0":9,"NORMAL":8}}],"name":" CG素材3D模型005"},{"primitives":[{"mode":4,"indices":3,"material":1,"attributes":{"POSITION":10,"TEXCOORD_0":12,"NORMAL":11}}],"name":" CG素材3D模型003"}]}