# Blender 4.3.0
# www.blender.org
mtllib ice_spike_small.mtl
o Cube
v -0.596799 0.011497 0.359987
v 0.090074 4.126324 0.072002
v -1.118172 0.120245 -0.794092
v -0.191131 4.357158 -0.191131
v 1.000000 -0.160341 1.000000
v 0.052598 4.575078 -0.019363
v 0.684039 -0.131566 -0.489414
v 0.038121 4.174198 -0.323532
v -0.946507 3.540629 0.516788
v -1.034591 3.250649 -0.514479
v 0.695168 2.971873 -0.753584
v 0.646107 2.825697 0.725543
v -0.842075 1.306732 -0.537077
v 0.676999 1.339462 -0.477854
v 0.386648 1.514440 0.885749
v -0.922186 1.622494 0.425925
vn -0.6556 0.7394 0.1533
vn -0.1043 0.3161 -0.9430
vn 0.9216 0.3865 -0.0373
vn 0.0101 0.4524 0.8918
vn -0.1199 -0.9927 -0.0137
vn -0.7221 0.6691 0.1758
vn -0.2145 0.0366 0.9760
vn 0.9900 -0.0758 0.1190
vn -0.0607 -0.0734 -0.9955
vn -0.9982 -0.0567 0.0212
vn -0.9773 -0.0412 0.2077
vn 0.1143 0.0884 -0.9895
vn 0.9810 0.1929 -0.0187
vn -0.3601 -0.0892 0.9286
vt 0.558139 0.000000
vt 0.625000 0.000000
vt 0.625000 0.250000
vt 0.558139 0.250000
vt 0.625000 0.500000
vt 0.558139 0.500000
vt 0.625000 0.750000
vt 0.558139 0.750000
vt 0.625000 1.000000
vt 0.558139 1.000000
vt 0.125000 0.500000
vt 0.375000 0.500000
vt 0.375000 0.750000
vt 0.125000 0.750000
vt 0.875000 0.500000
vt 0.875000 0.750000
vt 0.456188 0.750000
vt 0.456188 1.000000
vt 0.456188 0.500000
vt 0.456188 0.250000
vt 0.456188 0.000000
vt 0.375000 0.000000
vt 0.375000 0.250000
vt 0.375000 1.000000
s 0
f 9/1/1 2/2/1 4/3/1 10/4/1
f 10/4/2 4/3/2 8/5/2 11/6/2
f 11/6/3 8/5/3 6/7/3 12/8/3
f 12/8/4 6/7/4 2/9/4 9/10/4
f 3/11/5 7/12/5 5/13/5 1/14/5
f 8/5/6 4/15/6 2/16/6 6/7/6
f 15/17/7 12/8/7 9/10/7 16/18/7
f 14/19/8 11/6/8 12/8/8 15/17/8
f 13/20/9 10/4/9 11/6/9 14/19/9
f 16/21/10 9/1/10 10/4/10 13/20/10
f 1/22/11 16/21/11 13/20/11 3/23/11
f 3/23/12 13/20/12 14/19/12 7/12/12
f 7/12/13 14/19/13 15/17/13 5/13/13
f 5/13/14 15/17/14 16/18/14 1/24/14
