# Blender 4.3.2
# www.blender.org
o Cylinder
v -0.000000 0.023856 -0.083589
v 0.000000 0.547382 -1.070539
v 0.021635 0.023856 -0.080741
v 0.277076 0.547382 -1.034061
v 0.041795 0.023856 -0.072391
v 0.535270 0.547382 -0.927114
v 0.059107 0.023856 -0.059107
v 0.756985 0.547382 -0.756985
v 0.072391 0.023856 -0.041795
v 0.927114 0.547382 -0.535270
v 0.080741 0.023856 -0.021635
v 1.034061 0.547382 -0.277076
v 0.083589 0.023856 0.000000
v 1.070539 0.547382 -0.000000
v 0.080741 0.023856 0.021635
v 1.034061 0.547382 0.277076
v 0.072391 0.023856 0.041795
v 0.927114 0.547382 0.535269
v 0.059107 0.023856 0.059107
v 0.756985 0.547382 0.756985
v 0.041795 0.023856 0.072391
v 0.535270 0.547382 0.927114
v 0.021635 0.023856 0.080741
v 0.277076 0.547382 1.034061
v -0.000000 0.023856 0.083589
v 0.000000 0.547382 1.070539
v -0.021635 0.023856 0.080741
v -0.277076 0.547382 1.034061
v -0.041795 0.023856 0.072391
v -0.535270 0.547382 0.927114
v -0.059107 0.023856 0.059107
v -0.756985 0.547382 0.756985
v -0.072391 0.023856 0.041795
v -0.927114 0.547382 0.535269
v -0.080741 0.023856 0.021635
v -1.034061 0.547382 0.277076
v -0.083589 0.023856 0.000000
v -1.070539 0.547382 -0.000000
v -0.080741 0.023856 -0.021635
v -1.034061 0.547382 -0.277076
v -0.072391 0.023856 -0.041795
v -0.927114 0.547382 -0.535270
v -0.059107 0.023856 -0.059107
v -0.756985 0.547382 -0.756985
v -0.041795 0.023856 -0.072391
v -0.535270 0.547382 -0.927114
v -0.021635 0.023856 -0.080741
v -0.277076 0.547382 -1.034061
v -0.146591 0.074473 -0.253903
v -0.207311 0.074473 -0.207311
v -0.253903 0.074473 -0.146591
v -0.283192 0.074473 -0.075881
v -0.293182 0.074473 0.000000
v -0.283192 0.074473 0.075881
v -0.253903 0.074473 0.146591
v -0.207311 0.074473 0.207311
v -0.146591 0.074473 0.253903
v -0.075881 0.074473 0.283192
v -0.000000 0.074473 0.293182
v 0.075881 0.074473 0.283192
v 0.146591 0.074473 0.253903
v 0.207311 0.074473 0.207311
v 0.253903 0.074473 0.146591
v 0.283192 0.074473 0.075881
v 0.293182 0.074473 0.000000
v 0.283192 0.074473 -0.075881
v 0.253903 0.074473 -0.146591
v 0.207311 0.074473 -0.207311
v 0.146591 0.074473 -0.253903
v -0.075881 0.074473 -0.283192
v 0.075881 0.074473 -0.283192
v -0.000000 0.074473 -0.293182
v 0.000000 0.420801 -0.881624
v -0.000000 0.146374 -0.502775
v 0.000000 0.320067 -0.771285
v -0.000000 0.218925 -0.632617
v 0.130128 0.146374 -0.485643
v 0.228181 0.420801 -0.851584
v 0.163733 0.218925 -0.611061
v 0.199623 0.320067 -0.745004
v 0.251387 0.146374 -0.435416
v 0.440812 0.420801 -0.763509
v 0.316308 0.218925 -0.547862
v 0.385643 0.320067 -0.667953
v 0.355515 0.146374 -0.355515
v 0.623403 0.420801 -0.623403
v 0.447328 0.218925 -0.447328
v 0.545381 0.320067 -0.545381
v 0.435416 0.146374 -0.251387
v 0.763509 0.420801 -0.440812
v 0.547862 0.218925 -0.316308
v 0.667953 0.320067 -0.385643
v 0.485643 0.146374 -0.130128
v 0.851584 0.420801 -0.228181
v 0.611061 0.218925 -0.163733
v 0.745005 0.320067 -0.199623
v 0.502775 0.146374 0.000000
v 0.881624 0.420801 0.000000
v 0.632617 0.218925 0.000000
v 0.771285 0.320067 0.000000
v 0.485643 0.146374 0.130128
v 0.851584 0.420801 0.228181
v 0.611061 0.218925 0.163733
v 0.745005 0.320067 0.199623
v 0.435416 0.146374 0.251387
v 0.763509 0.420801 0.440812
v 0.547862 0.218925 0.316308
v 0.667953 0.320067 0.385643
v 0.355515 0.146374 0.355515
v 0.623402 0.420801 0.623402
v 0.447328 0.218925 0.447328
v 0.545381 0.320067 0.545381
v 0.251387 0.146374 0.435416
v 0.440812 0.420801 0.763509
v 0.316308 0.218925 0.547862
v 0.385643 0.320067 0.667953
v 0.130128 0.146374 0.485643
v 0.228181 0.420801 0.851584
v 0.163733 0.218925 0.611061
v 0.199623 0.320067 0.745004
v -0.000000 0.146374 0.502775
v 0.000000 0.420801 0.881624
v -0.000000 0.218925 0.632617
v 0.000000 0.320067 0.771285
v -0.130128 0.146374 0.485643
v -0.228181 0.420801 0.851584
v -0.163733 0.218925 0.611061
v -0.199623 0.320067 0.745004
v -0.251387 0.146374 0.435416
v -0.440812 0.420801 0.763509
v -0.316308 0.218925 0.547862
v -0.385643 0.320067 0.667953
v -0.355515 0.146374 0.355515
v -0.623402 0.420801 0.623402
v -0.447328 0.218925 0.447328
v -0.545381 0.320067 0.545381
v -0.435416 0.146374 0.251387
v -0.763509 0.420801 0.440812
v -0.547862 0.218925 0.316308
v -0.667953 0.320067 0.385643
v -0.485643 0.146374 0.130128
v -0.851584 0.420801 0.228181
v -0.611061 0.218925 0.163733
v -0.745005 0.320067 0.199623
v -0.502775 0.146374 0.000000
v -0.881624 0.420801 0.000000
v -0.632617 0.218925 0.000000
v -0.771285 0.320067 0.000000
v -0.485643 0.146374 -0.130128
v -0.851584 0.420801 -0.228181
v -0.611061 0.218925 -0.163733
v -0.745005 0.320067 -0.199623
v -0.435416 0.146374 -0.251387
v -0.763509 0.420801 -0.440812
v -0.547862 0.218925 -0.316308
v -0.667953 0.320067 -0.385643
v -0.355515 0.146374 -0.355515
v -0.623403 0.420801 -0.623403
v -0.447328 0.218925 -0.447328
v -0.545381 0.320067 -0.545381
v -0.251387 0.146374 -0.435416
v -0.440812 0.420801 -0.763509
v -0.316308 0.218925 -0.547862
v -0.385643 0.320067 -0.667953
v -0.130128 0.146374 -0.485643
v -0.228181 0.420801 -0.851584
v -0.163733 0.218925 -0.611061
v -0.199623 0.320067 -0.745004
vn -0.0000 -0.9721 -0.2348
vn -0.0000 -0.8308 -0.5566
vn 0.0608 -0.9721 -0.2268
vn 0.1441 -0.8308 -0.5377
vn 0.1174 -0.9721 -0.2033
vn 0.2783 -0.8308 -0.4821
vn 0.1660 -0.9721 -0.1660
vn 0.3936 -0.8308 -0.3936
vn 0.2033 -0.9721 -0.1174
vn 0.4821 -0.8308 -0.2783
vn 0.2268 -0.9721 -0.0608
vn 0.5377 -0.8308 -0.1441
vn 0.2348 -0.9721 -0.0000
vn 0.5566 -0.8308 -0.0000
vn 0.2268 -0.9721 0.0608
vn 0.5377 -0.8308 0.1441
vn 0.2033 -0.9721 0.1174
vn 0.4821 -0.8308 0.2783
vn 0.1660 -0.9721 0.1660
vn 0.3936 -0.8308 0.3936
vn 0.1174 -0.9721 0.2033
vn 0.2783 -0.8308 0.4821
vn 0.0608 -0.9721 0.2268
vn 0.1441 -0.8308 0.5377
vn -0.0000 -0.9721 0.2348
vn -0.0000 -0.8308 0.5566
vn -0.0608 -0.9721 0.2268
vn -0.1441 -0.8308 0.5377
vn -0.1174 -0.9721 0.2033
vn -0.2783 -0.8308 0.4821
vn -0.1660 -0.9721 0.1660
vn -0.3936 -0.8308 0.3936
vn -0.2033 -0.9721 0.1174
vn -0.4821 -0.8308 0.2783
vn -0.2268 -0.9721 0.0608
vn -0.5377 -0.8308 0.1441
vn -0.2348 -0.9721 -0.0000
vn -0.5566 -0.8308 -0.0000
vn -0.2268 -0.9721 -0.0608
vn -0.5377 -0.8308 -0.1441
vn -0.2033 -0.9721 -0.1174
vn -0.4821 -0.8308 -0.2783
vn -0.1660 -0.9721 -0.1660
vn -0.3936 -0.8308 -0.3936
vn -0.1174 -0.9721 -0.2033
vn -0.2783 -0.8308 -0.4821
vn -0.0608 -0.9721 -0.2268
vn -0.1441 -0.8308 -0.5377
vn -0.1418 -0.9590 -0.2455
vn -0.2005 -0.9590 -0.2005
vn -0.2455 -0.9590 -0.1418
vn -0.2738 -0.9590 -0.0734
vn -0.2835 -0.9590 -0.0000
vn -0.2738 -0.9590 0.0734
vn -0.2455 -0.9590 0.1418
vn -0.2005 -0.9590 0.2005
vn -0.1418 -0.9590 0.2455
vn -0.0734 -0.9590 0.2738
vn -0.0000 -0.9590 0.2835
vn 0.0734 -0.9590 0.2738
vn 0.1418 -0.9590 0.2455
vn 0.2005 -0.9590 0.2005
vn 0.2455 -0.9590 0.1418
vn 0.2738 -0.9590 0.0734
vn 0.2835 -0.9590 -0.0000
vn 0.2738 -0.9590 -0.0734
vn 0.2455 -0.9590 -0.1418
vn 0.2005 -0.9590 -0.2005
vn 0.1418 -0.9590 -0.2455
vn -0.0734 -0.9590 -0.2738
vn 0.0734 -0.9590 -0.2738
vn -0.0000 -0.9590 -0.2835
vn -0.0000 -0.7899 -0.6133
vn -0.0000 -0.9103 -0.4139
vn -0.0000 -0.7722 -0.6354
vn -0.0000 -0.8397 -0.5431
vn 0.1071 -0.9103 -0.3998
vn 0.1587 -0.7899 -0.5924
vn 0.1406 -0.8397 -0.5245
vn 0.1645 -0.7722 -0.6138
vn 0.2070 -0.9103 -0.3585
vn 0.3066 -0.7899 -0.5311
vn 0.2715 -0.8397 -0.4703
vn 0.3177 -0.7722 -0.5503
vn 0.2927 -0.9103 -0.2927
vn 0.4337 -0.7899 -0.4337
vn 0.3840 -0.8397 -0.3840
vn 0.4493 -0.7722 -0.4493
vn 0.3585 -0.9103 -0.2070
vn 0.5311 -0.7899 -0.3066
vn 0.4703 -0.8397 -0.2715
vn 0.5503 -0.7722 -0.3177
vn 0.3998 -0.9103 -0.1071
vn 0.5924 -0.7899 -0.1587
vn 0.5245 -0.8397 -0.1406
vn 0.6138 -0.7722 -0.1645
vn 0.4139 -0.9103 -0.0000
vn 0.6133 -0.7899 -0.0000
vn 0.5431 -0.8397 -0.0000
vn 0.6354 -0.7722 -0.0000
vn 0.3998 -0.9103 0.1071
vn 0.5924 -0.7899 0.1587
vn 0.5245 -0.8397 0.1406
vn 0.6138 -0.7722 0.1645
vn 0.3585 -0.9103 0.2070
vn 0.5311 -0.7899 0.3066
vn 0.4703 -0.8397 0.2715
vn 0.5503 -0.7722 0.3177
vn 0.2927 -0.9103 0.2927
vn 0.4337 -0.7899 0.4337
vn 0.3840 -0.8397 0.3840
vn 0.4493 -0.7722 0.4493
vn 0.2070 -0.9103 0.3585
vn 0.3066 -0.7899 0.5311
vn 0.2715 -0.8397 0.4703
vn 0.3177 -0.7722 0.5503
vn 0.1071 -0.9103 0.3998
vn 0.1587 -0.7899 0.5924
vn 0.1406 -0.8397 0.5245
vn 0.1645 -0.7722 0.6138
vn -0.0000 -0.9103 0.4139
vn -0.0000 -0.7899 0.6133
vn -0.0000 -0.8397 0.5431
vn -0.0000 -0.7722 0.6354
vn -0.1071 -0.9103 0.3998
vn -0.1587 -0.7899 0.5924
vn -0.1406 -0.8397 0.5245
vn -0.1645 -0.7722 0.6138
vn -0.2070 -0.9103 0.3585
vn -0.3066 -0.7899 0.5311
vn -0.2715 -0.8397 0.4703
vn -0.3177 -0.7722 0.5503
vn -0.2927 -0.9103 0.2927
vn -0.4337 -0.7899 0.4337
vn -0.3840 -0.8397 0.3840
vn -0.4493 -0.7722 0.4493
vn -0.3585 -0.9103 0.2070
vn -0.5311 -0.7899 0.3066
vn -0.4703 -0.8397 0.2715
vn -0.5503 -0.7722 0.3177
vn -0.3998 -0.9103 0.1071
vn -0.5924 -0.7899 0.1587
vn -0.5245 -0.8397 0.1406
vn -0.6138 -0.7722 0.1645
vn -0.4139 -0.9103 -0.0000
vn -0.6133 -0.7899 -0.0000
vn -0.5431 -0.8397 -0.0000
vn -0.6354 -0.7722 -0.0000
vn -0.3998 -0.9103 -0.1071
vn -0.5924 -0.7899 -0.1587
vn -0.5245 -0.8397 -0.1406
vn -0.6138 -0.7722 -0.1645
vn -0.3585 -0.9103 -0.2070
vn -0.5311 -0.7899 -0.3066
vn -0.4703 -0.8397 -0.2715
vn -0.5503 -0.7722 -0.3177
vn -0.2927 -0.9103 -0.2927
vn -0.4337 -0.7899 -0.4337
vn -0.3840 -0.8397 -0.3840
vn -0.4493 -0.7722 -0.4493
vn -0.2070 -0.9103 -0.3585
vn -0.3066 -0.7899 -0.5311
vn -0.2715 -0.8397 -0.4703
vn -0.3177 -0.7722 -0.5503
vn -0.1071 -0.9103 -0.3998
vn -0.1587 -0.7899 -0.5924
vn -0.1406 -0.8397 -0.5245
vn -0.1645 -0.7722 -0.6138
vt 0.464559 0.632266
vt 0.439223 0.726822
vt 0.500000 0.734823
vt 0.500000 0.636932
vt 0.568466 0.618586
vt 0.617412 0.703363
vt 0.666045 0.666045
vt 0.596825 0.596825
vt 0.703363 0.617412
vt 0.618587 0.568466
vt 0.726822 0.560777
vt 0.632266 0.535441
vt 0.734823 0.500000
vt 0.636932 0.500000
vt 0.726822 0.439223
vt 0.632266 0.464559
vt 0.703363 0.382588
vt 0.618587 0.431534
vt 0.666045 0.333955
vt 0.596825 0.403174
vt 0.617412 0.296637
vt 0.568466 0.381413
vt 0.560777 0.273178
vt 0.535441 0.367734
vt 0.500000 0.265177
vt 0.500000 0.363068
vt 0.439223 0.273178
vt 0.464559 0.367734
vt 0.382588 0.296637
vt 0.431534 0.381413
vt 0.333955 0.333955
vt 0.403174 0.403174
vt 0.296637 0.382588
vt 0.381413 0.431534
vt 0.273178 0.439223
vt 0.367734 0.464559
vt 0.265177 0.500000
vt 0.363068 0.500000
vt 0.273178 0.560777
vt 0.367734 0.535441
vt 0.296637 0.617412
vt 0.381413 0.568466
vt 0.333955 0.666045
vt 0.403174 0.596825
vt 0.382588 0.703363
vt 0.431534 0.618586
vt 0.510105 0.537710
vt 0.535441 0.632266
vt 0.519520 0.533810
vt 0.560777 0.726822
vt 0.294117 0.856600
vt 0.250000 0.933013
vt 0.370590 0.982963
vt 0.393427 0.897736
vt 0.208837 0.791163
vt 0.146447 0.853553
vt 0.143400 0.705883
vt 0.066987 0.750000
vt 0.102264 0.606573
vt 0.017037 0.629409
vt 0.088233 0.500000
vt 0.000000 0.500000
vt 0.102264 0.393427
vt 0.017037 0.370590
vt 0.143400 0.294117
vt 0.066987 0.250000
vt 0.208837 0.208837
vt 0.146447 0.146447
vt 0.294117 0.143400
vt 0.250000 0.066987
vt 0.393427 0.102264
vt 0.370590 0.017037
vt 0.500000 0.088233
vt 0.500000 0.000000
vt 0.606573 0.102264
vt 0.629409 0.017037
vt 0.705883 0.143400
vt 0.750000 0.066987
vt 0.791163 0.208837
vt 0.853553 0.146447
vt 0.856600 0.294117
vt 0.933013 0.250000
vt 0.897736 0.393427
vt 0.982963 0.370590
vt 0.911766 0.500000
vt 1.000000 0.500000
vt 0.897736 0.606573
vt 0.982963 0.629409
vt 0.856600 0.705883
vt 0.933013 0.750000
vt 0.791163 0.791163
vt 0.853553 0.853553
vt 0.705883 0.856600
vt 0.750000 0.933013
vt 0.606573 0.897736
vt 0.629409 0.982963
vt 0.500000 0.911766
vt 0.500000 1.000000
vt 0.500000 0.860232
vt 0.406765 0.847958
vt 0.500000 0.795466
vt 0.423528 0.785399
vt 0.319884 0.811970
vt 0.352267 0.755881
vt 0.245277 0.754723
vt 0.291074 0.708926
vt 0.188030 0.680116
vt 0.244118 0.647733
vt 0.152042 0.593235
vt 0.214601 0.576472
vt 0.139768 0.500000
vt 0.204533 0.500000
vt 0.152042 0.406765
vt 0.214601 0.423528
vt 0.188030 0.319884
vt 0.244118 0.352267
vt 0.245277 0.245277
vt 0.291074 0.291074
vt 0.319884 0.188030
vt 0.352267 0.244119
vt 0.406765 0.152042
vt 0.423528 0.214601
vt 0.500000 0.139768
vt 0.500000 0.204533
vt 0.593235 0.152042
vt 0.576472 0.214601
vt 0.680116 0.188030
vt 0.647733 0.244119
vt 0.754722 0.245277
vt 0.708926 0.291074
vt 0.811970 0.319884
vt 0.755882 0.352267
vt 0.847958 0.406765
vt 0.785399 0.423528
vt 0.860232 0.500000
vt 0.795466 0.500000
vt 0.847958 0.593235
vt 0.785399 0.576472
vt 0.811970 0.680116
vt 0.755882 0.647733
vt 0.754722 0.754723
vt 0.708926 0.708926
vt 0.680116 0.811970
vt 0.647733 0.755881
vt 0.593235 0.847958
vt 0.576472 0.785399
vt 0.500000 0.539041
vt 0.480480 0.533810
vt 0.489896 0.537710
vt 0.472394 0.527606
vt 0.466190 0.519520
vt 0.462289 0.510104
vt 0.460959 0.500000
vt 0.462289 0.489895
vt 0.466190 0.480480
vt 0.472394 0.472394
vt 0.480480 0.466189
vt 0.489896 0.462289
vt 0.500000 0.460959
vt 0.510105 0.462289
vt 0.519520 0.466189
vt 0.527606 0.472394
vt 0.533810 0.480480
vt 0.537711 0.489895
vt 0.539041 0.500000
vt 0.537711 0.510104
vt 0.533810 0.519520
vt 0.527606 0.527606
s 1
f 70/1/70 165/2/165 74/3/74 72/4/72
f 69/5/69 81/6/81 85/7/85 68/8/68
f 68/8/68 85/7/85 89/9/89 67/10/67
f 67/10/67 89/9/89 93/11/93 66/12/66
f 66/12/66 93/11/93 97/13/97 65/14/65
f 65/14/65 97/13/97 101/15/101 64/16/64
f 64/16/64 101/15/101 105/17/105 63/18/63
f 63/18/63 105/17/105 109/19/109 62/20/62
f 62/20/62 109/19/109 113/21/113 61/22/61
f 61/22/61 113/21/113 117/23/117 60/24/60
f 60/24/60 117/23/117 121/25/121 59/26/59
f 59/26/59 121/25/121 125/27/125 58/28/58
f 58/28/58 125/27/125 129/29/129 57/30/57
f 57/30/57 129/29/129 133/31/133 56/32/56
f 56/32/56 133/31/133 137/33/137 55/34/55
f 55/34/55 137/33/137 141/35/141 54/36/54
f 54/36/54 141/35/141 145/37/145 53/38/53
f 53/38/53 145/37/145 149/39/149 52/40/52
f 52/40/52 149/39/149 153/41/153 51/42/51
f 51/42/51 153/41/153 157/43/157 50/44/50
f 50/44/50 157/43/157 161/45/161 49/46/49
f 49/46/49 161/45/161 165/2/165 70/1/70
f 3/47/3 71/48/71 69/5/69 5/49/5
f 72/4/72 74/3/74 77/50/77 71/48/71
f 71/48/71 77/50/77 81/6/81 69/5/69
f 162/51/162 46/52/46 48/53/48 166/54/166
f 158/55/158 44/56/44 46/52/46 162/51/162
f 154/57/154 42/58/42 44/56/44 158/55/158
f 150/59/150 40/60/40 42/58/42 154/57/154
f 146/61/146 38/62/38 40/60/40 150/59/150
f 142/63/142 36/64/36 38/62/38 146/61/146
f 138/65/138 34/66/34 36/64/36 142/63/142
f 134/67/134 32/68/32 34/66/34 138/65/138
f 130/69/130 30/70/30 32/68/32 134/67/134
f 126/71/126 28/72/28 30/70/30 130/69/130
f 122/73/122 26/74/26 28/72/28 126/71/126
f 118/75/118 24/76/24 26/74/26 122/73/122
f 114/77/114 22/78/22 24/76/24 118/75/118
f 110/79/110 20/80/20 22/78/22 114/77/114
f 106/81/106 18/82/18 20/80/20 110/79/110
f 102/83/102 16/84/16 18/82/18 106/81/106
f 98/85/98 14/86/14 16/84/16 102/83/102
f 94/87/94 12/88/12 14/86/14 98/85/98
f 90/89/90 10/90/10 12/88/12 94/87/94
f 86/91/86 8/92/8 10/90/10 90/89/90
f 82/93/82 6/94/6 8/92/8 86/91/86
f 78/95/78 4/96/4 6/94/6 82/93/82
f 73/97/73 2/98/2 4/96/4 78/95/78
f 166/54/166 73/97/73 75/99/75 168/100/168
f 168/100/168 75/99/75 76/101/76 167/102/167
f 167/102/167 76/101/76 74/3/74 165/2/165
f 162/51/162 166/54/166 168/100/168 164/103/164
f 164/103/164 168/100/168 167/102/167 163/104/163
f 163/104/163 167/102/167 165/2/165 161/45/161
f 158/55/158 162/51/162 164/103/164 160/105/160
f 160/105/160 164/103/164 163/104/163 159/106/159
f 159/106/159 163/104/163 161/45/161 157/43/157
f 154/57/154 158/55/158 160/105/160 156/107/156
f 156/107/156 160/105/160 159/106/159 155/108/155
f 155/108/155 159/106/159 157/43/157 153/41/153
f 150/59/150 154/57/154 156/107/156 152/109/152
f 152/109/152 156/107/156 155/108/155 151/110/151
f 151/110/151 155/108/155 153/41/153 149/39/149
f 146/61/146 150/59/150 152/109/152 148/111/148
f 148/111/148 152/109/152 151/110/151 147/112/147
f 147/112/147 151/110/151 149/39/149 145/37/145
f 142/63/142 146/61/146 148/111/148 144/113/144
f 144/113/144 148/111/148 147/112/147 143/114/143
f 143/114/143 147/112/147 145/37/145 141/35/141
f 138/65/138 142/63/142 144/113/144 140/115/140
f 140/115/140 144/113/144 143/114/143 139/116/139
f 139/116/139 143/114/143 141/35/141 137/33/137
f 134/67/134 138/65/138 140/115/140 136/117/136
f 136/117/136 140/115/140 139/116/139 135/118/135
f 135/118/135 139/116/139 137/33/137 133/31/133
f 130/69/130 134/67/134 136/117/136 132/119/132
f 132/119/132 136/117/136 135/118/135 131/120/131
f 131/120/131 135/118/135 133/31/133 129/29/129
f 126/71/126 130/69/130 132/119/132 128/121/128
f 128/121/128 132/119/132 131/120/131 127/122/127
f 127/122/127 131/120/131 129/29/129 125/27/125
f 122/73/122 126/71/126 128/121/128 124/123/124
f 124/123/124 128/121/128 127/122/127 123/124/123
f 123/124/123 127/122/127 125/27/125 121/25/121
f 118/75/118 122/73/122 124/123/124 120/125/120
f 120/125/120 124/123/124 123/124/123 119/126/119
f 119/126/119 123/124/123 121/25/121 117/23/117
f 114/77/114 118/75/118 120/125/120 116/127/116
f 116/127/116 120/125/120 119/126/119 115/128/115
f 115/128/115 119/126/119 117/23/117 113/21/113
f 110/79/110 114/77/114 116/127/116 112/129/112
f 112/129/112 116/127/116 115/128/115 111/130/111
f 111/130/111 115/128/115 113/21/113 109/19/109
f 106/81/106 110/79/110 112/129/112 108/131/108
f 108/131/108 112/129/112 111/130/111 107/132/107
f 107/132/107 111/130/111 109/19/109 105/17/105
f 102/83/102 106/81/106 108/131/108 104/133/104
f 104/133/104 108/131/108 107/132/107 103/134/103
f 103/134/103 107/132/107 105/17/105 101/15/101
f 98/85/98 102/83/102 104/133/104 100/135/100
f 100/135/100 104/133/104 103/134/103 99/136/99
f 99/136/99 103/134/103 101/15/101 97/13/97
f 94/87/94 98/85/98 100/135/100 96/137/96
f 96/137/96 100/135/100 99/136/99 95/138/95
f 95/138/95 99/136/99 97/13/97 93/11/93
f 90/89/90 94/87/94 96/137/96 92/139/92
f 92/139/92 96/137/96 95/138/95 91/140/91
f 91/140/91 95/138/95 93/11/93 89/9/89
f 86/91/86 90/89/90 92/139/92 88/141/88
f 88/141/88 92/139/92 91/140/91 87/142/87
f 87/142/87 91/140/91 89/9/89 85/7/85
f 82/93/82 86/91/86 88/141/88 84/143/84
f 84/143/84 88/141/88 87/142/87 83/144/83
f 83/144/83 87/142/87 85/7/85 81/6/81
f 78/95/78 82/93/82 84/143/84 80/145/80
f 80/145/80 84/143/84 83/144/83 79/146/79
f 79/146/79 83/144/83 81/6/81 77/50/77
f 73/97/73 78/95/78 80/145/80 75/99/75
f 75/99/75 80/145/80 79/146/79 76/101/76
f 76/101/76 79/146/79 77/50/77 74/3/74
f 166/54/166 48/53/48 2/98/2 73/97/73
f 1/147/1 72/4/72 71/48/71 3/47/3
f 45/148/45 49/46/49 70/1/70 47/149/47
f 43/150/43 50/44/50 49/46/49 45/148/45
f 41/151/41 51/42/51 50/44/50 43/150/43
f 39/152/39 52/40/52 51/42/51 41/151/41
f 37/153/37 53/38/53 52/40/52 39/152/39
f 35/154/35 54/36/54 53/38/53 37/153/37
f 33/155/33 55/34/55 54/36/54 35/154/35
f 31/156/31 56/32/56 55/34/55 33/155/33
f 29/157/29 57/30/57 56/32/56 31/156/31
f 27/158/27 58/28/58 57/30/57 29/157/29
f 25/159/25 59/26/59 58/28/58 27/158/27
f 23/160/23 60/24/60 59/26/59 25/159/25
f 21/161/21 61/22/61 60/24/60 23/160/23
f 19/162/19 62/20/62 61/22/61 21/161/21
f 17/163/17 63/18/63 62/20/62 19/162/19
f 15/164/15 64/16/64 63/18/63 17/163/17
f 13/165/13 65/14/65 64/16/64 15/164/15
f 11/166/11 66/12/66 65/14/65 13/165/13
f 9/167/9 67/10/67 66/12/66 11/166/11
f 7/168/7 68/8/68 67/10/67 9/167/9
f 5/49/5 69/5/69 68/8/68 7/168/7
f 47/149/47 70/1/70 72/4/72 1/147/1
