# Blender 3.6.8
# www.blender.org
mtllib sm_box2_rotated.mtl
o Cube
v -0.680229 0.477801 -0.242888
v 0.144912 0.830428 0.198470
v -0.709101 -0.276121 0.413441
v 0.116041 0.076506 0.854799
v -0.116041 -0.076506 -0.854799
v 0.709101 0.276121 -0.413441
v -0.144912 -0.830428 -0.198470
v 0.680229 -0.477801 0.242888
vn -0.8251 -0.3526 -0.4414
vn -0.0289 -0.7539 0.6563
vn 0.5642 -0.5543 -0.6119
vn 0.8251 0.3526 0.4414
vn -0.5642 0.5543 0.6119
vn 0.0289 0.7539 -0.6563
vt 0.999900 0.000100
vt 0.999900 0.999900
vt 0.000100 0.999900
vt 0.000100 0.000100
vt 0.999900 0.000100
vt 0.999900 0.999900
vt 0.000100 0.999900
vt 0.000100 0.000100
vt 0.000100 0.999900
vt 0.000100 0.000100
vt 0.999900 0.000100
vt 0.999900 0.999900
vt 0.000100 0.999900
vt 0.000100 0.000100
vt 0.999900 0.000100
vt 0.999900 0.999900
s 0
usemtl Material
f 1/1/1 5/2/1 7/3/1 3/4/1
f 4/5/2 3/6/2 7/7/2 8/8/2
f 8/9/3 7/10/3 5/11/3 6/12/3
f 6/13/4 2/14/4 4/15/4 8/16/4
f 2/5/5 1/6/5 3/7/5 4/8/5
f 6/9/6 5/10/6 1/11/6 2/12/6
