# Blender 4.1.1
# www.blender.org
mtllib fireball_trail.mtl
o Plane
v -1.000000 0.000000 0.003159
v 1.000000 0.000000 0.003159
v 0.000000 0.000000 -2.941210
v 0.000000 0.000000 -2.941210
v -0.406355 0.000000 -2.345904
v -0.667155 0.000000 -1.843869
v -0.824161 0.000000 -1.435104
v -0.911378 0.000000 -1.119611
v -0.956934 0.000000 -0.885730
v -0.985153 0.000000 -0.663508
v -0.998692 0.000000 -0.441286
v -1.000000 0.000000 -0.219063
v 1.000000 0.000000 -0.219063
v 0.998692 0.000000 -0.441286
v 0.985153 0.000000 -0.663508
v 0.956934 0.000000 -0.885730
v 0.911378 0.000000 -1.119611
v 0.824161 0.000000 -1.435104
v 0.667155 0.000000 -1.843869
v 0.406355 0.000000 -2.345904
v -1.000000 0.000000 0.003159
v 1.000000 0.000000 0.003159
v 0.000000 0.000000 -2.941210
v 0.000000 0.000000 -2.941210
v -0.406355 0.000000 -2.345904
v -0.667155 0.000000 -1.843869
v -0.824161 0.000000 -1.435104
v -0.911378 0.000000 -1.119611
v -0.956934 0.000000 -0.885730
v -0.985153 0.000000 -0.663508
v -0.998692 0.000000 -0.441286
v -1.000000 0.000000 -0.219063
v 1.000000 0.000000 -0.219063
v 0.998692 0.000000 -0.441286
v 0.985153 0.000000 -0.663508
v 0.956934 0.000000 -0.885730
v 0.911378 0.000000 -1.119611
v 0.824161 0.000000 -1.435104
v 0.667155 0.000000 -1.843869
v 0.406355 0.000000 -2.345904
v -1.000000 0.000000 0.003159
v 1.000000 0.000000 0.003159
v 0.000000 0.000000 -2.941210
v 0.000000 0.000000 -2.941210
v -0.406355 0.000000 -2.345904
v -0.667155 0.000000 -1.843869
v -0.824161 0.000000 -1.435104
v -0.911378 0.000000 -1.119611
v -0.956934 0.000000 -0.885730
v -0.985153 0.000000 -0.663508
v -0.998692 0.000000 -0.441286
v -1.000000 0.000000 -0.219063
v 1.000000 0.000000 -0.219063
v 0.998692 0.000000 -0.441286
v 0.985153 0.000000 -0.663508
v 0.956934 0.000000 -0.885730
v 0.911378 0.000000 -1.119611
v 0.824161 0.000000 -1.435104
v 0.667155 0.000000 -1.843869
v 0.406355 0.000000 -2.345904
v -1.000000 0.000000 0.003159
v 1.000000 0.000000 0.003159
v 0.000000 0.000000 -2.941210
v 0.000000 0.000000 -2.941210
v -0.406355 0.000000 -2.345904
v -0.667155 0.000000 -1.843869
v -0.824161 0.000000 -1.435104
v -0.911378 0.000000 -1.119611
v -0.956934 0.000000 -0.885730
v -0.985153 0.000000 -0.663508
v -0.998692 0.000000 -0.441286
v -1.000000 0.000000 -0.219063
v 1.000000 0.000000 -0.219063
v 0.998692 0.000000 -0.441286
v 0.985153 0.000000 -0.663508
v 0.956934 0.000000 -0.885730
v 0.911378 0.000000 -1.119611
v 0.824161 0.000000 -1.435104
v 0.667155 0.000000 -1.843869
v 0.406355 0.000000 -2.345904
v 0.000000 1.000000 0.003159
v 0.000000 -1.000000 0.003159
v -0.000000 -0.000000 -2.941210
v -0.000000 -0.000000 -2.941210
v 0.000000 0.406355 -2.345904
v 0.000000 0.667155 -1.843868
v 0.000000 0.824161 -1.435104
v 0.000000 0.911378 -1.119611
v 0.000000 0.956934 -0.885730
v 0.000000 0.985153 -0.663508
v 0.000000 0.998692 -0.441286
v 0.000000 1.000000 -0.219063
v 0.000000 -1.000000 -0.219063
v -0.000000 -0.998692 -0.441286
v -0.000000 -0.985153 -0.663508
v -0.000000 -0.956934 -0.885730
v -0.000000 -0.911378 -1.119611
v -0.000000 -0.824161 -1.435104
v -0.000000 -0.667155 -1.843868
v -0.000000 -0.406355 -2.345904
v 0.000000 1.000000 0.003159
v 0.000000 -1.000000 0.003159
v -0.000000 -0.000000 -2.941210
v -0.000000 -0.000000 -2.941210
v 0.000000 0.406355 -2.345904
v 0.000000 0.667155 -1.843868
v 0.000000 0.824161 -1.435104
v 0.000000 0.911378 -1.119611
v 0.000000 0.956934 -0.885730
v 0.000000 0.985153 -0.663508
v 0.000000 0.998692 -0.441286
v 0.000000 1.000000 -0.219063
v 0.000000 -1.000000 -0.219063
v -0.000000 -0.998692 -0.441286
v -0.000000 -0.985153 -0.663508
v -0.000000 -0.956934 -0.885730
v -0.000000 -0.911378 -1.119611
v -0.000000 -0.824161 -1.435104
v -0.000000 -0.667155 -1.843868
v -0.000000 -0.406355 -2.345904
v 0.000000 1.000000 0.003159
v 0.000000 -1.000000 0.003159
v -0.000000 -0.000000 -2.941210
v -0.000000 -0.000000 -2.941210
v 0.000000 0.406355 -2.345904
v 0.000000 0.667155 -1.843868
v 0.000000 0.824161 -1.435104
v 0.000000 0.911378 -1.119611
v 0.000000 0.956934 -0.885730
v 0.000000 0.985153 -0.663508
v 0.000000 0.998692 -0.441286
v 0.000000 1.000000 -0.219063
v 0.000000 -1.000000 -0.219063
v -0.000000 -0.998692 -0.441286
v -0.000000 -0.985153 -0.663508
v -0.000000 -0.956934 -0.885730
v -0.000000 -0.911378 -1.119611
v -0.000000 -0.824161 -1.435104
v -0.000000 -0.667155 -1.843868
v -0.000000 -0.406355 -2.345904
v 0.000000 1.000000 0.003159
v 0.000000 -1.000000 0.003159
v -0.000000 -0.000000 -2.941210
v -0.000000 -0.000000 -2.941210
v 0.000000 0.406355 -2.345904
v 0.000000 0.667155 -1.843868
v 0.000000 0.824161 -1.435104
v 0.000000 0.911378 -1.119611
v 0.000000 0.956934 -0.885730
v 0.000000 0.985153 -0.663508
v 0.000000 0.998692 -0.441286
v 0.000000 1.000000 -0.219063
v 0.000000 -1.000000 -0.219063
v -0.000000 -0.998692 -0.441286
v -0.000000 -0.985153 -0.663508
v -0.000000 -0.956934 -0.885730
v -0.000000 -0.911378 -1.119611
v -0.000000 -0.824161 -1.435104
v -0.000000 -0.667155 -1.843868
v -0.000000 -0.406355 -2.345904
vn -0.0000 1.0000 -0.0000
vn 1.0000 -0.0000 -0.0000
vt 0.111111 -0.000000
vt 0.111111 1.000000
vt -0.000000 1.000000
vt 0.000000 -0.000000
vt 1.000000 0.000000
vt 1.000000 1.000000
vt 0.888889 1.000000
vt 0.888889 0.000000
vt 0.777778 1.000000
vt 0.777778 0.000000
vt 0.666667 1.000000
vt 0.666667 0.000000
vt 0.555555 1.000000
vt 0.555556 0.000000
vt 0.444444 1.000000
vt 0.444444 0.000000
vt 0.333333 1.000000
vt 0.333333 0.000000
vt 0.222222 1.000000
vt 0.222222 -0.000000
s 0
f 5/1/1 20/2/1 4/3/1 3/4/1
f 1/5/1 2/6/1 13/7/1 12/8/1
f 12/8/1 13/7/1 14/9/1 11/10/1
f 11/10/1 14/9/1 15/11/1 10/12/1
f 10/12/1 15/11/1 16/13/1 9/14/1
f 9/14/1 16/13/1 17/15/1 8/16/1
f 8/16/1 17/15/1 18/17/1 7/18/1
f 7/18/1 18/17/1 19/19/1 6/20/1
f 6/20/1 19/19/1 20/2/1 5/1/1
f 25/1/1 40/2/1 24/3/1 23/4/1
f 21/5/1 22/6/1 33/7/1 32/8/1
f 32/8/1 33/7/1 34/9/1 31/10/1
f 31/10/1 34/9/1 35/11/1 30/12/1
f 30/12/1 35/11/1 36/13/1 29/14/1
f 29/14/1 36/13/1 37/15/1 28/16/1
f 28/16/1 37/15/1 38/17/1 27/18/1
f 27/18/1 38/17/1 39/19/1 26/20/1
f 26/20/1 39/19/1 40/2/1 25/1/1
f 45/1/1 60/2/1 44/3/1 43/4/1
f 41/5/1 42/6/1 53/7/1 52/8/1
f 52/8/1 53/7/1 54/9/1 51/10/1
f 51/10/1 54/9/1 55/11/1 50/12/1
f 50/12/1 55/11/1 56/13/1 49/14/1
f 49/14/1 56/13/1 57/15/1 48/16/1
f 48/16/1 57/15/1 58/17/1 47/18/1
f 47/18/1 58/17/1 59/19/1 46/20/1
f 46/20/1 59/19/1 60/2/1 45/1/1
f 65/1/1 80/2/1 64/3/1 63/4/1
f 61/5/1 62/6/1 73/7/1 72/8/1
f 72/8/1 73/7/1 74/9/1 71/10/1
f 71/10/1 74/9/1 75/11/1 70/12/1
f 70/12/1 75/11/1 76/13/1 69/14/1
f 69/14/1 76/13/1 77/15/1 68/16/1
f 68/16/1 77/15/1 78/17/1 67/18/1
f 67/18/1 78/17/1 79/19/1 66/20/1
f 66/20/1 79/19/1 80/2/1 65/1/1
f 85/1/2 100/2/2 84/3/2 83/4/2
f 81/5/2 82/6/2 93/7/2 92/8/2
f 92/8/2 93/7/2 94/9/2 91/10/2
f 91/10/2 94/9/2 95/11/2 90/12/2
f 90/12/2 95/11/2 96/13/2 89/14/2
f 89/14/2 96/13/2 97/15/2 88/16/2
f 88/16/2 97/15/2 98/17/2 87/18/2
f 87/18/2 98/17/2 99/19/2 86/20/2
f 86/20/2 99/19/2 100/2/2 85/1/2
f 105/1/2 120/2/2 104/3/2 103/4/2
f 101/5/2 102/6/2 113/7/2 112/8/2
f 112/8/2 113/7/2 114/9/2 111/10/2
f 111/10/2 114/9/2 115/11/2 110/12/2
f 110/12/2 115/11/2 116/13/2 109/14/2
f 109/14/2 116/13/2 117/15/2 108/16/2
f 108/16/2 117/15/2 118/17/2 107/18/2
f 107/18/2 118/17/2 119/19/2 106/20/2
f 106/20/2 119/19/2 120/2/2 105/1/2
f 125/1/2 140/2/2 124/3/2 123/4/2
f 121/5/2 122/6/2 133/7/2 132/8/2
f 132/8/2 133/7/2 134/9/2 131/10/2
f 131/10/2 134/9/2 135/11/2 130/12/2
f 130/12/2 135/11/2 136/13/2 129/14/2
f 129/14/2 136/13/2 137/15/2 128/16/2
f 128/16/2 137/15/2 138/17/2 127/18/2
f 127/18/2 138/17/2 139/19/2 126/20/2
f 126/20/2 139/19/2 140/2/2 125/1/2
f 145/1/2 160/2/2 144/3/2 143/4/2
f 141/5/2 142/6/2 153/7/2 152/8/2
f 152/8/2 153/7/2 154/9/2 151/10/2
f 151/10/2 154/9/2 155/11/2 150/12/2
f 150/12/2 155/11/2 156/13/2 149/14/2
f 149/14/2 156/13/2 157/15/2 148/16/2
f 148/16/2 157/15/2 158/17/2 147/18/2
f 147/18/2 158/17/2 159/19/2 146/20/2
f 146/20/2 159/19/2 160/2/2 145/1/2
