# Blender 4.3.0
# www.blender.org
mtllib thunder_lighting.mtl
o Plane.001
v -1.000000 0.000000 1.000000
v 1.000000 0.000000 1.000000
v -1.000000 0.000000 -1.000000
v 1.000000 0.000000 -1.000000
v -0.532640 0.077154 0.031771
v 0.770694 0.077154 0.014250
v 0.947383 14.142651 1.002362
v -0.502117 14.142735 -0.431849
v 0.928698 13.518411 0.998804
v 0.625533 12.822336 0.793909
v 0.260111 11.997423 0.379547
v 0.161172 11.067076 0.046987
v 0.130359 10.234392 0.146627
v 0.015933 9.622254 0.325681
v -0.103377 9.192640 0.453372
v -0.218240 8.702752 0.534859
v -0.348396 7.990223 0.613032
v -0.576043 7.137049 0.786551
v -0.866958 6.388675 1.030069
v -1.177273 5.860508 1.302708
v -1.483023 5.276150 1.517532
v -1.450912 4.397008 1.293927
v -1.093336 3.583223 0.832329
v -0.985914 2.802685 0.646289
v -0.884748 1.969218 0.427086
v -0.884472 1.380849 0.269079
v -0.837590 0.745898 0.113941
v 1.053585 0.745898 -0.131078
v 1.114211 1.380849 -0.354337
v 1.167697 1.973394 -0.604009
v 0.817661 2.816864 -0.610690
v 0.289265 3.583223 -0.302024
v 0.123414 4.433404 -0.189690
v -0.013306 5.288511 -0.048477
v 0.057065 5.862209 -0.109237
v 0.243282 6.388676 -0.312819
v 0.451456 7.126475 -0.561220
v 0.514774 7.986482 -0.645858
v 0.464680 8.701991 -0.572891
v 0.449065 9.192656 -0.595996
v 0.534002 9.644587 -0.941717
v 0.568042 10.239201 -1.630050
v 0.240846 11.093117 -2.222025
v -0.439717 11.997423 -1.946265
v -0.734454 12.822336 -1.117559
v -0.577691 13.518411 -0.560372
v 0.000000 -0.001640 -1.000000
v -0.000000 0.986189 -2.590179
v 0.195090 -0.001640 -0.980785
v 0.505319 0.986189 -2.540410
v 0.382683 -0.001640 -0.923880
v 0.991219 0.986189 -2.393014
v 0.555570 -0.001640 -0.831470
v 1.439027 0.986189 -2.153656
v 0.707107 -0.001640 -0.707107
v 1.831533 0.986189 -1.831533
v 0.831470 -0.001640 -0.555570
v 2.153656 0.986189 -1.439027
v 0.923880 -0.001640 -0.382683
v 2.393014 0.986189 -0.991219
v 0.980785 -0.001640 -0.195090
v 2.540410 0.986189 -0.505319
v 1.000000 -0.001640 0.000000
v 2.590179 0.986189 -0.000000
v 0.980785 -0.001640 0.195090
v 2.540410 0.986189 0.505319
v 0.923880 -0.001640 0.382683
v 2.393014 0.986189 0.991219
v 0.831470 -0.001640 0.555570
v 2.153656 0.986189 1.439027
v 0.707107 -0.001640 0.707107
v 1.831533 0.986189 1.831533
v 0.555570 -0.001640 0.831470
v 1.439027 0.986189 2.153656
v 0.382683 -0.001640 0.923880
v 0.991219 0.986189 2.393014
v 0.195090 -0.001640 0.980785
v 0.505319 0.986189 2.540410
v 0.000000 -0.001640 1.000000
v -0.000000 0.986189 2.590179
v -0.195090 -0.001640 0.980785
v -0.505319 0.986189 2.540410
v -0.382683 -0.001640 0.923880
v -0.991219 0.986189 2.393014
v -0.555570 -0.001640 0.831470
v -1.439027 0.986189 2.153656
v -0.707107 -0.001640 0.707107
v -1.831533 0.986189 1.831533
v -0.831470 -0.001640 0.555570
v -2.153656 0.986189 1.439027
v -0.923880 -0.001640 0.382683
v -2.393014 0.986189 0.991219
v -0.980785 -0.001640 0.195090
v -2.540410 0.986189 0.505319
v -1.000000 -0.001640 0.000000
v -2.590179 0.986189 -0.000000
v -0.980785 -0.001640 -0.195090
v -2.540410 0.986189 -0.505319
v -0.923880 -0.001640 -0.382683
v -2.393014 0.986189 -0.991219
v -0.831470 -0.001640 -0.555570
v -2.153656 0.986189 -1.439027
v -0.707107 -0.001640 -0.707107
v -1.831533 0.986189 -1.831533
v -0.555570 -0.001640 -0.831470
v -1.439027 0.986189 -2.153656
v -0.382683 -0.001640 -0.923880
v -0.991219 0.986189 -2.393014
v -0.195090 -0.001640 -0.980785
v -0.505319 0.986189 -2.540410
vn -0.0000 1.0000 -0.0000
vn 0.7355 0.0504 -0.6756
vn 0.7473 0.0657 -0.6612
vn 0.7114 0.0206 -0.7025
vn 0.0818 0.0484 0.9955
vn 0.1631 0.0494 0.9854
vn 0.3083 0.0528 0.9498
vn 0.3042 0.0527 0.9511
vn 0.4426 0.0421 0.8957
vn 0.4518 0.0403 0.8912
vn 0.5401 0.0162 0.8414
vn 0.5628 0.0068 0.8265
vn 0.6242 -0.0242 0.7809
vn 0.6396 -0.0342 0.7680
vn 0.6818 -0.0624 0.7289
vn 0.6909 -0.0686 0.7197
vn 0.7221 -0.0798 0.6872
vn 0.7199 -0.0797 0.6895
vn 0.7512 -0.0717 0.6562
vn 0.7448 -0.0760 0.6630
vn 0.7740 -0.0600 0.6303
vn 0.7672 -0.0628 0.6383
vn 0.7976 -0.0522 0.6009
vn 0.7921 -0.0538 0.6080
vn 0.8226 -0.0469 0.5667
vn 0.8205 -0.0472 0.5697
vn 0.8517 -0.0400 0.5225
vn 0.8499 -0.0406 0.5254
vn 0.8921 -0.0055 0.4518
vn 0.8843 -0.0150 0.4666
vn 0.9400 0.0755 0.3326
vn 0.9262 0.0472 0.3739
vn 0.9667 0.1898 0.1718
vn 0.9624 0.1523 0.2250
vn 0.9569 0.2899 -0.0168
vn 0.9585 0.2850 -0.0061
vn 0.9180 0.3194 -0.2351
vn 0.8991 0.3038 -0.3150
vn 0.8415 0.2227 -0.4923
vn 0.8071 0.1559 -0.5695
vn -0.0000 0.8494 0.5277
vn -0.1029 0.8494 0.5175
vn -0.2019 0.8494 0.4875
vn -0.2932 0.8494 0.4387
vn -0.3731 0.8494 0.3731
vn -0.4387 0.8494 0.2932
vn -0.4875 0.8494 0.2019
vn -0.5175 0.8494 0.1029
vn -0.5277 0.8494 -0.0000
vn -0.5175 0.8494 -0.1029
vn -0.4875 0.8494 -0.2019
vn -0.4387 0.8494 -0.2932
vn -0.3731 0.8494 -0.3731
vn -0.2932 0.8494 -0.4387
vn -0.2019 0.8494 -0.4875
vn -0.1029 0.8494 -0.5175
vn -0.0000 0.8494 -0.5277
vn 0.1029 0.8494 -0.5175
vn 0.2019 0.8494 -0.4875
vn 0.2932 0.8494 -0.4387
vn 0.3731 0.8494 -0.3731
vn 0.4387 0.8494 -0.2932
vn 0.4875 0.8494 -0.2019
vn 0.5175 0.8494 -0.1029
vn 0.5277 0.8494 -0.0000
vn 0.5175 0.8494 0.1029
vn 0.4875 0.8494 0.2019
vn 0.4387 0.8494 0.2932
vn 0.3731 0.8494 0.3731
vn 0.2932 0.8494 0.4387
vn 0.2019 0.8494 0.4875
vn 0.1029 0.8494 0.5175
vt 0.000000 0.000000
vt 1.000000 0.000000
vt 1.000000 1.000000
vt 0.000000 1.000000
vt 0.000000 0.950000
vt 1.000000 0.950000
vt 1.000000 0.050000
vt 0.000000 0.050000
vt 1.000000 0.100000
vt 0.000000 0.100000
vt 1.000000 0.150000
vt 0.000000 0.150000
vt 1.000000 0.200000
vt 0.000000 0.200000
vt 1.000000 0.250000
vt 0.000000 0.250000
vt 1.000000 0.300000
vt 0.000000 0.300000
vt 1.000000 0.350000
vt 0.000000 0.350000
vt 1.000000 0.400000
vt 0.000000 0.400000
vt 1.000000 0.450000
vt 0.000000 0.450000
vt 1.000000 0.500000
vt 0.000000 0.500000
vt 1.000000 0.550000
vt 0.000000 0.550000
vt 1.000000 0.600000
vt 0.000000 0.600000
vt 1.000000 0.650000
vt 0.000000 0.650000
vt 1.000000 0.700000
vt 0.000000 0.700000
vt 1.000000 0.750000
vt 0.000000 0.750000
vt 1.000000 0.800000
vt 0.000000 0.800000
vt 1.000000 0.850000
vt 0.000000 0.850000
vt 1.000000 0.900000
vt 0.000000 0.900000
vt 0.968750 0.000000
vt 0.968750 1.000000
vt 0.937500 0.000000
vt 0.937500 1.000000
vt 0.906250 0.000000
vt 0.906250 1.000000
vt 0.875000 0.000000
vt 0.875000 1.000000
vt 0.843750 0.000000
vt 0.843750 1.000000
vt 0.812500 0.000000
vt 0.812500 1.000000
vt 0.781250 0.000000
vt 0.781250 1.000000
vt 0.750000 0.000000
vt 0.750000 1.000000
vt 0.718750 0.000000
vt 0.718750 1.000000
vt 0.687500 0.000000
vt 0.687500 1.000000
vt 0.656250 0.000000
vt 0.656250 1.000000
vt 0.625000 0.000000
vt 0.625000 1.000000
vt 0.593750 0.000000
vt 0.593750 1.000000
vt 0.562500 0.000000
vt 0.562500 1.000000
vt 0.531250 0.000000
vt 0.531250 1.000000
vt 0.500000 0.000000
vt 0.500000 1.000000
vt 0.468750 0.000000
vt 0.468750 1.000000
vt 0.437500 0.000000
vt 0.437500 1.000000
vt 0.406250 0.000000
vt 0.406250 1.000000
vt 0.375000 0.000000
vt 0.375000 1.000000
vt 0.343750 0.000000
vt 0.343750 1.000000
vt 0.312500 0.000000
vt 0.312500 1.000000
vt 0.281250 0.000000
vt 0.281250 1.000000
vt 0.250000 0.000000
vt 0.250000 1.000000
vt 0.218750 0.000000
vt 0.218750 1.000000
vt 0.187500 0.000000
vt 0.187500 1.000000
vt 0.156250 0.000000
vt 0.156250 1.000000
vt 0.125000 0.000000
vt 0.125000 1.000000
vt 0.093750 0.000000
vt 0.093750 1.000000
vt 0.062500 0.000000
vt 0.062500 1.000000
vt 0.031250 0.000000
vt 0.031250 1.000000
s 0
usemtl Material.003
f 1/1/1 2/2/1 4/3/1 3/4/1
s 1
usemtl Material.002
f 9/5/2 46/6/3 8/3/4 7/4/4
f 5/1/5 6/2/5 28/7/6 27/8/6
f 27/8/6 28/7/6 29/9/7 26/10/8
f 26/10/8 29/9/7 30/11/9 25/12/10
f 25/12/10 30/11/9 31/13/11 24/14/12
f 24/14/12 31/13/11 32/15/13 23/16/14
f 23/16/14 32/15/13 33/17/15 22/18/16
f 22/18/16 33/17/15 34/19/17 21/20/18
f 21/20/18 34/19/17 35/21/19 20/22/20
f 20/22/20 35/21/19 36/23/21 19/24/22
f 19/24/22 36/23/21 37/25/23 18/26/24
f 18/26/24 37/25/23 38/27/25 17/28/26
f 17/28/26 38/27/25 39/29/27 16/30/28
f 16/30/28 39/29/27 40/31/29 15/32/30
f 15/32/30 40/31/29 41/33/31 14/34/32
f 14/34/32 41/33/31 42/35/33 13/36/34
f 13/36/34 42/35/33 43/37/35 12/38/36
f 12/38/36 43/37/35 44/39/37 11/40/38
f 11/40/38 44/39/37 45/41/39 10/42/40
f 10/42/40 45/41/39 46/6/3 9/5/2
usemtl Material.001
f 47/2/41 49/43/42 50/44/42 48/3/41
f 49/43/42 51/45/43 52/46/43 50/44/42
f 51/45/43 53/47/44 54/48/44 52/46/43
f 53/47/44 55/49/45 56/50/45 54/48/44
f 55/49/45 57/51/46 58/52/46 56/50/45
f 57/51/46 59/53/47 60/54/47 58/52/46
f 59/53/47 61/55/48 62/56/48 60/54/47
f 61/55/48 63/57/49 64/58/49 62/56/48
f 63/57/49 65/59/50 66/60/50 64/58/49
f 65/59/50 67/61/51 68/62/51 66/60/50
f 67/61/51 69/63/52 70/64/52 68/62/51
f 69/63/52 71/65/53 72/66/53 70/64/52
f 71/65/53 73/67/54 74/68/54 72/66/53
f 73/67/54 75/69/55 76/70/55 74/68/54
f 75/69/55 77/71/56 78/72/56 76/70/55
f 77/71/56 79/73/57 80/74/57 78/72/56
f 79/73/57 81/75/58 82/76/58 80/74/57
f 81/75/58 83/77/59 84/78/59 82/76/58
f 83/77/59 85/79/60 86/80/60 84/78/59
f 85/79/60 87/81/61 88/82/61 86/80/60
f 87/81/61 89/83/62 90/84/62 88/82/61
f 89/83/62 91/85/63 92/86/63 90/84/62
f 91/85/63 93/87/64 94/88/64 92/86/63
f 93/87/64 95/89/65 96/90/65 94/88/64
f 95/89/65 97/91/66 98/92/66 96/90/65
f 97/91/66 99/93/67 100/94/67 98/92/66
f 99/93/67 101/95/68 102/96/68 100/94/67
f 101/95/68 103/97/69 104/98/69 102/96/68
f 103/97/69 105/99/70 106/100/70 104/98/69
f 105/99/70 107/101/71 108/102/71 106/100/70
f 107/101/71 109/103/72 110/104/72 108/102/71
f 109/103/72 47/1/41 48/4/41 110/104/72
